<?xml version="1.0" encoding="iso-8859-1"?>
<!-- Generator: Adobe Illustrator 19.0.0, SVG Export Plug-In . SVG Version: 6.00 Build 0)  -->
<svg version="1.1" id="Capa_1" xmlns="http://www.w3.org/2000/svg" xmlns:xlink="http://www.w3.org/1999/xlink" x="0px" y="0px"
	 viewBox="0 0 512 512" style="enable-background:new 0 0 512 512;" xml:space="preserve">
<path style="fill:#FFFFFF;" d="M313.968,185.745c-1.062-7.965-7.857-13.913-15.892-13.913h-84.153
	c-8.035,0-14.83,5.949-15.892,13.913l-14.177,106.329v40.081h144.29v-40.081L313.968,185.745z"/>
<g>
	<path style="fill:#FFC850;" d="M213.924,171.832c-8.035,0-14.83,5.949-15.892,13.913l-14.177,106.329v40.081h34.255l20.003-146.409
		c1.062-7.965,7.857-13.913,15.892-13.913h-40.081V171.832z"/>
	<path style="fill:#FFC850;" d="M336.161,316.122V300.09c0-4.427-3.589-8.016-8.016-8.016h-16.032c-4.427,0-8.016,3.589-8.016,8.016
		v16.032c0,4.427-3.589,8.016-8.016,8.016h-16.032c-4.427,0-8.016-3.589-8.016-8.016V300.09c0-4.427-3.589-8.016-8.016-8.016
		h-16.032c-4.427,0-8.016,3.589-8.016,8.016v16.032c0,4.427-3.589,8.016-8.016,8.016h-16.032c-4.427,0-8.016-3.589-8.016-8.016
		V300.09c0-4.427-3.589-8.016-8.016-8.016h-16.032c-4.427,0-8.016,3.589-8.016,8.016v16.032c0,4.427-3.589,8.016-8.016,8.016h-8.016
		v152.306h192.387V324.138h-8.016C339.75,324.138,336.161,320.549,336.161,316.122z"/>
</g>
<path style="fill:#FFFFFF;" d="M473.761,314.67c-0.75-8.258-7.675-14.581-15.966-14.581h-98.977
	c-8.292,0-15.216,6.323-15.966,14.581l-14.707,161.774h160.323L473.761,314.67z"/>
<path style="fill:#FFC850;" d="M398.899,300.09h-40.081c-8.292,0-15.216,6.323-15.966,14.581l-14.707,161.774h40.081l14.707-161.774
	C383.683,306.413,390.607,300.09,398.899,300.09z"/>
<path style="fill:#FFFFFF;" d="M448.489,234.222c-0.887-8.133-7.756-14.293-15.938-14.293h-48.489
	c-8.181,0-15.051,6.16-15.938,14.293l-7.186,65.868h94.737L448.489,234.222z"/>
<g>
	<circle style="fill:#FFC850;" cx="408.31" cy="356.201" r="16.03"/>
	<path style="fill:#FFC850;" d="M453.926,284.058h-43.775c-9.543,0-16.973-8.285-15.938-17.771l5.057-46.358h-15.208
		c-8.181,0-15.051,6.16-15.938,14.294l-7.186,65.868h94.737L453.926,284.058z"/>
</g>
<path style="fill:#FFFFFF;" d="M169.148,314.67c-0.75-8.258-7.675-14.581-15.966-14.581H54.205c-8.292,0-15.216,6.323-15.966,14.581
	L23.532,476.445h160.322L169.148,314.67z"/>
<path style="fill:#FFC850;" d="M94.286,300.09H54.205c-8.292,0-15.216,6.323-15.966,14.581L23.532,476.445h40.081L78.32,314.67
	C79.07,306.413,85.994,300.09,94.286,300.09z"/>
<g>
	<path style="fill:#FFFFFF;" d="M143.876,234.222c-0.887-8.133-7.756-14.293-15.938-14.293H79.449
		c-8.181,0-15.051,6.16-15.938,14.293l-7.186,65.868h94.736L143.876,234.222z"/>
	<path style="fill:#FFFFFF;" d="M289.82,121.746c-1.003-8.023-7.823-14.043-15.909-14.043h-35.823
		c-8.086,0-14.906,6.02-15.909,14.043l-6.261,50.086h80.161L289.82,121.746z"/>
</g>
<path style="fill:#FF9052;" d="M256,380.251c-17.709,0-32.064,14.355-32.064,32.065v64.129h64.129v-64.129
	C288.065,394.607,273.709,380.251,256,380.251z"/>
<g>
	<circle style="fill:#FFC850;" cx="103.69" cy="356.201" r="16.03"/>
	<circle style="fill:#FFC850;" cx="256" cy="227.941" r="16.03"/>
	<path style="fill:#FFC850;" d="M149.313,284.058h-43.775c-9.543,0-16.973-8.285-15.938-17.771l5.057-46.358H79.449
		c-8.181,0-15.051,6.16-15.938,14.294l-7.186,65.868h94.736L149.313,284.058z"/>
	<path style="fill:#FFC850;" d="M246.228,137.779l3.76-30.076h-11.9c-8.085,0-14.905,6.021-15.908,14.043l-6.261,50.086h80.161
		l-2.004-16.032h-31.94C252.493,155.799,245.032,147.348,246.228,137.779z"/>
</g>
<path style="fill:#FF8031;" d="M256,380.251c-17.709,0-32.064,14.355-32.064,32.065v24.048c0-17.709,14.355-32.065,32.064-32.065
	s32.065,14.355,32.065,32.065v-24.048C288.065,394.607,273.709,380.251,256,380.251z"/>
<g>
	<polygon style="fill:#ABFFDB;" points="103.693,147.783 103.693,187.864 151.79,167.824 	"/>
	<polygon style="fill:#ABFFDB;" points="408.306,147.783 408.306,187.864 456.403,167.824 	"/>
	<polygon style="fill:#ABFFDB;" points="256,35.558 256,75.638 304.097,55.598 	"/>
</g>
<path style="fill:#474D54;" d="M504.5,468.944h-9.183l-14.086-154.953c-0.965-10.612-8.716-18.948-18.78-20.94l-6.506-59.643
	c-1.305-11.961-11.361-20.981-23.393-20.981h-16.745v-19.564l43.481-18.117c2.794-1.165,4.615-3.896,4.615-6.923
	c0-3.028-1.82-5.758-4.615-6.923l-48.097-20.04c-2.314-0.964-4.958-0.709-7.045,0.683c-2.086,1.391-3.34,3.732-3.34,6.24v64.645
	h-16.745c-12.032,0-22.088,9.02-23.393,20.981l-6.507,59.643c-4.008,0.793-7.636,2.604-10.627,5.154
	c-0.648-5.313-3.988-9.793-8.613-12.051l-13.52-101.4c-1.341-10.055-9.009-17.962-18.64-19.934l-5.501-44.004
	c-1.469-11.751-11.507-20.613-23.35-20.613H263.5V80.638l43.481-18.118c2.795-1.165,4.615-3.895,4.615-6.923
	s-1.821-5.759-4.615-6.923l-48.097-20.04c-2.315-0.965-4.958-0.709-7.045,0.683c-2.086,1.391-3.34,3.732-3.34,6.24v64.645h-10.412
	c-11.843,0-21.881,8.862-23.35,20.613l-5.501,44.004c-9.631,1.973-17.299,9.879-18.64,19.934l-13.52,101.4
	c-4.625,2.259-7.965,6.739-8.613,12.051c-2.991-2.55-6.619-4.36-10.627-5.154l-6.506-59.643
	c-1.305-11.961-11.361-20.981-23.393-20.981h-16.745v-19.564l43.482-18.117c2.794-1.165,4.615-3.896,4.615-6.923
	c0-3.028-1.82-5.758-4.615-6.923l-48.097-20.04c-2.314-0.964-4.958-0.709-7.045,0.683c-2.086,1.391-3.34,3.732-3.34,6.24v64.645
	H79.449c-12.032,0-22.088,9.02-23.393,20.981l-6.506,59.643c-10.063,1.992-17.814,10.328-18.78,20.94L16.683,468.944H7.5
	c-4.142,0-7.5,3.358-7.5,7.5s3.358,7.5,7.5,7.5h497c4.142,0,7.5-3.358,7.5-7.5S508.642,468.944,504.5,468.944z M415.807,159.033
	l21.097,8.791l-21.097,8.79V159.033z M263.5,46.808l21.097,8.79l-21.097,8.79V46.808z M111.193,159.033l21.097,8.791l-21.097,8.79
	C111.193,176.614,111.193,159.033,111.193,159.033z M31.745,468.944l13.963-153.595c0.402-4.424,4.056-7.76,8.498-7.76h49.488
	c4.142,0,7.5-3.358,7.5-7.5s-3.358-7.5-7.5-7.5H64.688l6.279-57.554c0.473-4.337,4.12-7.608,8.482-7.608h48.49
	c4.362,0,8.009,3.271,8.482,7.608l6.279,57.554h-6.942c-4.142,0-7.5,3.358-7.5,7.5s3.358,7.5,7.5,7.5h17.424
	c4.442,0,8.095,3.336,8.497,7.76l13.964,153.595H31.745z M205.466,186.736c0.563-4.221,4.199-7.405,8.458-7.405h34.062
	c4.142,0,7.5-3.358,7.5-7.5s-3.358-7.5-7.5-7.5h-23.57l5.207-41.655c0.533-4.261,4.172-7.474,8.466-7.474h35.823
	c4.294,0,7.934,3.213,8.466,7.474l5.207,41.655h-7.536c-4.142,0-7.5,3.358-7.5,7.5s3.358,7.5,7.5,7.5h16.001
	c0.007,0,0.014,0.001,0.021,0.001c0.005,0,0.01-0.001,0.016-0.001h1.989c4.259,0,7.895,3.184,8.458,7.405l13.045,97.837h-7.466
	c-8.556,0-15.516,6.96-15.516,15.516v16.032c0,0.285-0.232,0.516-0.516,0.516h-16.032c-0.285,0-0.516-0.231-0.516-0.516v-16.032
	c0-8.556-6.96-15.516-15.516-15.516h-16.032c-8.556,0-15.516,6.96-15.516,15.516v16.032c0,0.285-0.232,0.516-0.516,0.516h-16.032
	c-0.285,0-0.516-0.231-0.516-0.516v-16.032c0-8.556-6.96-15.516-15.516-15.516h-7.466L205.466,186.736z M321.296,468.944H190.704
	l-12.517-137.687c2.991-0.986,5.152-3.798,5.152-7.12v-24.048c0-0.284,0.231-0.515,0.515-0.516c0.003,0,0.007,0.001,0.011,0.001
	c0.007,0,0.014-0.001,0.021-0.001h16.002c0.285,0,0.516,0.231,0.516,0.516v16.032c0,8.556,6.961,15.516,15.516,15.516h16.032
	c8.556,0,15.516-6.96,15.516-15.516v-16.032c0-0.285,0.231-0.516,0.516-0.516h16.032c0.285,0,0.516,0.231,0.516,0.516v16.032
	c0,8.556,6.961,15.516,15.516,15.516h16.032c8.556,0,15.516-6.96,15.516-15.516v-16.032c0-0.285,0.231-0.516,0.516-0.516h16.002
	c0.007,0,0.014,0.001,0.021,0.001c0.003,0,0.007-0.001,0.011-0.001c0.284,0.001,0.515,0.232,0.515,0.516v24.048
	c0,3.321,2.161,6.133,5.152,7.12L321.296,468.944z M336.358,468.944l13.964-153.595c0.402-4.423,4.055-7.759,8.497-7.759h49.489
	c4.142,0,7.5-3.358,7.5-7.5s-3.358-7.5-7.5-7.5h-39.006l6.279-57.554c0.473-4.337,4.12-7.608,8.482-7.608h48.49
	c4.362,0,8.009,3.271,8.482,7.608l6.279,57.554h-6.942c-4.142,0-7.5,3.358-7.5,7.5s3.358,7.5,7.5,7.5h17.424
	c4.442,0,8.095,3.336,8.498,7.76l13.963,153.595H336.358V468.944z"/>
<g>
</g>
<g>
</g>
<g>
</g>
<g>
</g>
<g>
</g>
<g>
</g>
<g>
</g>
<g>
</g>
<g>
</g>
<g>
</g>
<g>
</g>
<g>
</g>
<g>
</g>
<g>
</g>
<g>
</g>
</svg>
